<svg viewBox="0 0 24 24" fill="none" xmlns="http://www.w3.org/2000/svg">
        <path fill-rule="evenodd" clip-rule="evenodd" d="M12.0504 3.59869L12.5654 3.6009C14.3459 3.61222 19.8176 3.68017 21.3768 4.08788C22.4093 4.35537 23.2229 5.14813 23.4987 6.15434C23.9335 7.73387 23.9915 10.801 23.9992 11.5908V11.9691C23.9915 12.7592 23.9335 15.8274 23.4987 17.4069C23.2229 18.4131 22.4093 19.2045 21.3768 19.4734C19.6839 19.916 13.3792 19.9582 12.1937 19.9622H11.8079C10.6224 19.9582 4.31751 19.916 2.6234 19.4734C1.59087 19.2045 0.777309 18.4131 0.501504 17.4069C0.0666827 15.8274 0.00870671 12.7592 0.000976562 11.9691V11.5908C0.00870671 10.801 0.0666827 7.73387 0.501504 6.15434C0.777309 5.14813 1.59087 4.35537 2.6234 4.08788C4.18376 3.68017 9.6556 3.61222 11.4362 3.6009L11.9512 3.59869C11.9675 3.59866 11.9799 3.59865 11.9882 3.59864L12.0008 3.59863C12.0008 3.59863 12.0178 3.59863 12.0504 3.59869ZM9.54571 8.32779V15.234L15.8185 11.7802L9.54571 8.32779Z" fill="currentColor"></path>
      </svg>