<svg viewBox="0 0 18 18" fill="none" xmlns="http://www.w3.org/2000/svg">
        <path fill-rule="evenodd" clip-rule="evenodd" d="M10 0c1.6 0 1.9 0 2.7.1 1 0 1.6.2 2.2.4.6.2 1.1.5 1.6 1s.8 1 1 1.6c.2.6.4 1.2.4 2.2.1.9.1 1.3.1 3.7 0 2.4 0 2.8-.1 3.7 0 1-.2 1.6-.4 2.2-.2.6-.5 1.1-1 1.6s-1 .8-1.6 1c-.6.2-1.2.4-2.2.4-1 0-1.3.1-3.7.1-2.4 0-2.8 0-3.7-.1-1 0-1.6-.2-2.2-.4-.6-.2-1.1-.5-1.6-1s-.8-1-1-1.6c-.2-.6-.4-1.2-.4-2.2C0 11.9 0 11.6 0 10V8c0-1.6 0-1.9.1-2.7 0-1 .2-1.6.4-2.2.2-.6.5-1.1 1-1.6s1-.8 1.6-1C3.7.3 4.3.1 5.3.1 6.1 0 6.4 0 8 0h2zm-.5 1.6h-1c-1.9 0-2.2 0-3.1.1-.9 0-1.4.2-1.7.3-.4.1-.7.3-1 .7-.4.3-.6.6-.7 1-.1.3-.3.8-.3 1.7 0 .9-.1 1.2-.1 3.1v1.1c0 1.9 0 2.2.1 3.1 0 .9.2 1.4.3 1.7.2.4.4.7.7 1 .3.3.6.5 1 .7.3.1.8.3 1.7.3.9 0 1.2.1 3.1.1h1.1c1.9 0 2.2 0 3.1-.1.9 0 1.4-.2 1.7-.3.4-.2.7-.4 1-.7.3-.3.5-.6.7-1 .1-.3.3-.8.3-1.7 0-.9.1-1.2.1-3.1V8.5c0-1.9 0-2.2-.1-3.1 0-.9-.2-1.4-.3-1.7-.2-.4-.4-.7-.7-1-.3-.3-.6-.5-1-.7-.3-.1-.8-.3-1.7-.3-.9-.1-1.2-.1-3.2-.1zM9 4.4c2.6 0 4.6 2.1 4.6 4.6 0 2.6-2.1 4.6-4.6 4.6-2.5 0-4.6-2-4.6-4.6 0-2.6 2-4.6 4.6-4.6zM9 6C7.3 6 6 7.3 6 9s1.3 3 3 3 3-1.3 3-3-1.3-3-3-3zm4.8-2.9c.6 0 1.1.5 1.1 1.1 0 .6-.5 1.1-1.1 1.1-.6 0-1.1-.5-1.1-1.1 0-.6.5-1.1 1.1-1.1z"></path>
      </svg>